<svg width="20" height="20" viewBox="0 0 20 20" fill="none" xmlns="http://www.w3.org/2000/svg">
<path d="M19.6107 17.6867L11.8248 10L19.5864 2.31325L19.6107 2.28916C20.0487 1.80723 20.0487 1.06024 19.5864 0.626506C19.3431 0.385542 19.0268 0.26506 18.6861 0.26506C18.3698 0.26506 18.0779 0.409639 17.8589 0.626506L10.0973 8.31325L2.09246 0.361446C1.84915 0.120482 1.53285 0 1.19221 0C0.875912 0 0.583942 0.144578 0.364964 0.361446C0.145985 0.60241 9.24525e-08 0.915663 0.024331 1.22892C0.024331 1.54217 0.170316 1.83133 0.389295 2.04819L8.39416 10L0.364964 17.9518C0.121655 18.1928 0 18.506 0 18.8434C0 19.1566 0.145985 19.4458 0.364964 19.6627C0.53528 19.8072 0.80292 20 1.21655 20C1.6545 20 1.92214 19.8072 2.09246 19.6627L10.1217 11.7108L17.8832 19.3976C18.0535 19.5663 18.3212 19.7349 18.7591 19.7349C19.1971 19.7349 19.4647 19.5422 19.635 19.3976C19.8783 19.1566 20 18.8434 20 18.506C19.9757 18.1928 19.854 17.9036 19.6107 17.6867Z" fill="black"/>
</svg>
