<svg width="29" height="29" viewBox="0 0 29 29" fill="none" xmlns="http://www.w3.org/2000/svg">
<g clip-path="url(#clip0_175_3)">
<path d="M0.356445 14.013C0.356445 19.1617 3.32703 23.7055 7.38711 25.9376C8.79915 26.7312 9.9683 24.8491 8.40976 23.9484C5.03405 22.0654 2.65444 18.3288 2.65444 14.0121C2.65444 7.66676 7.70866 2.58501 14.0549 2.58501C15.5578 2.57904 17.0471 2.87044 18.4369 3.44243C19.8267 4.01442 21.0896 4.8557 22.1529 5.91782C23.2162 6.97994 24.0589 8.24192 24.6325 9.63109C25.206 11.0203 25.4991 12.5092 25.4948 14.0121C25.4948 14.8184 26.1143 15.2087 26.7042 15.2087C27.2559 15.2087 27.781 14.8056 27.781 14.0121C27.781 6.51137 21.5566 0.300781 14.054 0.300781C6.56802 0.300781 0.356445 6.51137 0.356445 14.0121V14.013Z" fill="#303236"/>
<path d="M5.78711 14.013C5.78711 17.0111 7.42727 19.5254 9.39094 20.788C10.7479 21.7025 11.918 19.8883 10.7754 19.1085C9.92527 18.5577 9.22644 17.8029 8.74262 16.9129C8.25881 16.0229 8.00539 15.026 8.00546 14.013C8.00546 10.6255 10.6948 7.93612 14.0558 7.93612C17.4167 7.93612 20.0107 10.6117 20.1326 14.013C20.1592 14.6315 20.6292 15.1153 21.2477 15.1153C21.8662 15.1153 22.35 14.6315 22.35 14.014C22.35 9.4691 18.5996 5.71875 14.0558 5.71875C9.53844 5.71875 5.78711 9.4691 5.78711 14.013Z" fill="#303236"/>
<path d="M13.5451 23.7467C13.5314 24.2708 14.1499 24.4449 14.4862 24.1096L16.5433 22.0525L18.8422 27.7262C18.9504 27.9819 19.2188 28.1018 19.4607 28.0084L20.7912 27.4705C21.0331 27.3624 21.1275 27.0802 21.0065 26.8245L18.6003 21.2324L21.4913 21.1243C22.0016 21.0977 22.2435 20.6001 21.8807 20.2235L14.5403 12.6688C14.1902 12.3187 13.6799 12.5213 13.6661 13.0178L13.5451 23.7467Z" fill="#6F7177"/>
</g>
<defs>
<clipPath id="clip0_175_3">
<rect width="28.246" height="28.516" fill="white"/>
</clipPath>
</defs>
</svg>
