<svg width="25" height="20" viewBox="0 0 25 20" fill="none" xmlns="http://www.w3.org/2000/svg">
<path d="M0.904687 0C0.900781 0 0.896875 0 0.892187 0C0.399219 0 0 0.40688 0 0.909308C0 1.41174 0.399219 1.81862 0.892187 1.81862C0.896875 1.81862 0.900781 1.81862 0.905469 1.81862H24.0953C24.0992 1.81862 24.1031 1.81862 24.1078 1.81862C24.6008 1.81862 25 1.41174 25 0.909308C25 0.40688 24.6008 0 24.1078 0C24.1031 0 24.0992 0 24.0945 0H0.904687ZM0.904687 9.09069C0.900781 9.09069 0.896875 9.09069 0.892187 9.09069C0.399219 9.09069 0 9.49757 0 10C0 10.5024 0.399219 10.9093 0.892187 10.9093C0.896875 10.9093 0.900781 10.9093 0.905469 10.9093H24.0953C24.0992 10.9093 24.1031 10.9093 24.1078 10.9093C24.6008 10.9093 25 10.5024 25 10C25 9.49757 24.6008 9.09069 24.1078 9.09069C24.1031 9.09069 24.0992 9.09069 24.0945 9.09069H0.904687ZM0.904687 18.1814C0.900781 18.1814 0.896875 18.1814 0.892187 18.1814C0.399219 18.1814 0 18.5883 0 19.0907C0 19.5931 0.399219 20 0.892187 20C0.896875 20 0.900781 20 0.905469 20H24.0953C24.0992 20 24.1031 20 24.1078 20C24.6008 20 25 19.5931 25 19.0907C25 18.5883 24.6008 18.1814 24.1078 18.1814C24.1031 18.1814 24.0992 18.1814 24.0945 18.1814H0.904687Z" fill="black"/>
</svg>
