<svg width="24" height="24" viewBox="0 0 24 24" fill="none" xmlns="http://www.w3.org/2000/svg">
<path d="M9.65596 2C9.54587 2 9.47248 2 9.39908 2.03663C5.28899 3.50183 2.5367 7.38461 2.5 11.7436C2.5 17.3846 7.12385 22 12.7752 22C17.1422 22 21.0321 19.2161 22.4633 15.1136C22.5 15.0403 22.5 14.967 22.5 14.8571C22.5 14.4542 22.1697 14.1245 21.7661 14.1245C21.6927 14.1245 21.5826 14.1245 21.5092 14.1612C20.5917 14.4908 19.6009 14.6374 18.6101 14.674C13.7294 14.674 9.80275 10.7546 9.80275 5.88278C9.80275 4.89377 9.98624 3.94139 10.3165 2.98901C10.3532 2.91575 10.3532 2.84249 10.3532 2.7326C10.3899 2.32967 10.0596 2.03663 9.65596 2Z" fill="#666465" fill-opacity="0.4"/>
</svg>
