<svg width="22" height="40" viewBox="0 0 22 40" fill="none" xmlns="http://www.w3.org/2000/svg">
<g clip-path="url(#clip0_208_132)">
<path fill-rule="evenodd" clip-rule="evenodd" d="M14.4307 36.6081C16.4677 37.3092 18.7035 37.7164 20.4207 37.7164V39.9636C18.4195 39.9636 15.9445 39.5005 13.7282 38.7378C11.5567 37.9903 9.40609 36.8784 8.2571 35.4339C7.03517 33.8978 6.9499 32.0281 7.96102 30.6191C8.47002 29.9099 9.20484 29.3879 10.0854 29.0899C9.86094 28.7924 9.64651 28.4769 9.4442 28.1423C7.97389 25.7106 7.53504 24.0169 7.33891 22.5178C7.28221 22.0846 7.24657 21.703 7.21339 21.3479L7.21324 21.3463C7.1298 20.4528 7.06193 19.7259 6.71409 18.7616C5.81886 16.2795 3.81519 15.2239 1.54909 15.2239V12.9767C4.55061 12.9767 7.50465 14.4531 8.77845 17.9847C9.23293 19.2448 9.33653 20.3618 9.42697 21.3372C9.45557 21.6457 9.48285 21.94 9.51952 22.2202C9.67539 23.4115 10.0112 24.8036 11.316 26.9613C12.7541 29.3398 14.998 30.5611 16.9629 31.1872C17.9401 31.4987 18.8256 31.6548 19.4648 31.7326C19.7835 31.7715 20.0385 31.7906 20.2099 31.7998C20.2955 31.8045 20.36 31.8067 20.401 31.8079L20.4444 31.8088H20.4512C20.4512 31.8088 20.4505 31.8088 20.4505 32.9324C20.4505 34.056 20.4496 34.056 20.4496 34.056H20.4485H20.4459H20.4388H20.4307L20.4172 34.0557C20.4099 34.0557 20.4015 34.0556 20.392 34.0554L20.3882 34.0553L20.3658 34.0548C20.3593 34.0546 20.3525 34.0544 20.3453 34.0544C20.2848 34.0528 20.1997 34.0497 20.0926 34.0438C19.8785 34.0321 19.5754 34.0092 19.2042 33.964C18.4636 33.8737 17.4415 33.6937 16.3078 33.3324C14.9498 32.8998 13.3983 32.1955 11.9824 31.0492C10.8124 31.027 10.0721 31.4784 9.73532 31.9476C9.38354 32.438 9.29827 33.1793 9.96456 34.0169C10.7038 34.9463 12.3489 35.8917 14.4307 36.6081Z" fill="black"/>
<path d="M1.54909 2.24719C3.26625 2.24719 5.50204 2.6544 7.53909 3.35548C9.62084 4.07196 11.266 5.01739 12.0052 5.9467C12.6715 6.78432 12.5862 7.52571 12.2345 8.01587C11.8477 8.55477 10.9286 9.07022 9.43784 8.8716L9.43489 8.89465C8.18432 8.00458 6.86575 7.42769 5.69179 7.05364C4.55811 6.69243 3.53601 6.51231 2.79538 6.42207C2.42415 6.37683 2.1211 6.35387 1.90699 6.3422C1.79986 6.33636 1.71478 6.33333 1.65432 6.33175C1.62409 6.33099 1.59999 6.33056 1.58235 6.33034L1.56077 6.33014L1.55368 6.33009H1.55107H1.55C1.55 6.33009 1.54909 6.33009 1.54909 7.45369C1.54909 8.57728 1.54834 8.57728 1.54834 8.57728L1.55514 8.57735C1.5635 8.57746 1.57808 8.57771 1.59856 8.57823C1.63955 8.5793 1.7041 8.58153 1.78973 8.5862C1.96113 8.59553 2.21608 8.61461 2.53477 8.65344C3.17398 8.73133 4.05943 8.88751 5.03667 9.19888C7.00158 9.82495 9.24551 11.0464 10.6836 13.4247C11.9884 15.5825 12.3242 16.9746 12.4801 18.1659C12.5167 18.4461 12.544 18.7404 12.5726 19.0488C12.6631 20.0242 12.7666 21.1413 13.2211 22.4014C14.4949 25.933 17.449 27.4094 20.4505 27.4094V25.1622C18.1844 25.1622 16.1807 24.1065 15.2855 21.6245C14.9377 20.6601 14.8698 19.9333 14.7863 19.0398C14.7531 18.6842 14.7174 18.3021 14.6607 17.8682C14.4646 16.3693 14.0257 14.6754 12.5554 12.2438C12.2725 11.776 11.966 11.3455 11.6414 10.9492C12.6299 10.6687 13.4536 10.118 14.0088 9.34447C15.0199 7.9356 14.9346 6.0658 13.7127 4.52964C12.5637 3.08515 10.4131 1.97331 8.24155 1.22593C6.02529 0.463173 3.55024 0 1.54909 0V2.24719Z" fill="black"/>
<path d="M20.4507 21.3799C21.3064 21.3799 22 20.6714 22 19.7974C22 18.9234 21.3064 18.2148 20.4507 18.2148C19.595 18.2148 18.9014 18.9234 18.9014 19.7974C18.9014 20.6714 19.595 21.3799 20.4507 21.3799Z" fill="black"/>
<path d="M3.09859 20.1139C3.09859 20.9879 2.40495 21.6964 1.5493 21.6964C0.693642 21.6964 0 20.9879 0 20.1139C0 19.2399 0.693642 18.5314 1.5493 18.5314C2.40495 18.5314 3.09859 19.2399 3.09859 20.1139Z" fill="black"/>
</g>
<defs>
<clipPath id="clip0_208_132">
<rect width="22" height="40" fill="white"/>
</clipPath>
</defs>
</svg>
