<svg width="24" height="24" viewBox="0 0 24 24" fill="none" xmlns="http://www.w3.org/2000/svg">
<path fill-rule="evenodd" clip-rule="evenodd" d="M12.5457 0.337647L14.5797 4.40561C14.6743 4.59477 14.6641 4.81849 14.5532 4.9985C14.4414 5.17851 14.2461 5.28835 14.0346 5.28835H9.9666C9.75507 5.28835 9.55879 5.17851 9.44794 4.9985C9.33607 4.81849 9.32691 4.59374 9.42149 4.40561L11.4555 0.337647C11.5592 0.131198 11.7707 0 12.0016 0C12.2325 0 12.444 0.131193 12.5477 0.337647H12.5457ZM20.6327 4.13927L19.1947 8.45326C19.1275 8.65462 18.9618 8.80515 18.7563 8.85396C18.5509 8.90176 18.3343 8.84074 18.1848 8.69125L15.3087 5.81517C15.1592 5.66567 15.0982 5.44906 15.146 5.24362C15.1948 5.03819 15.3463 4.8714 15.5467 4.8053L19.8607 3.36728C20.0803 3.29406 20.3224 3.35101 20.4851 3.51475C20.6488 3.67848 20.7059 3.91961 20.6327 4.13927ZM23.6623 12.5457L19.5944 14.5797C19.4052 14.6743 19.1815 14.6641 19.0015 14.5532C18.8215 14.4414 18.7117 14.2461 18.7117 14.0346V9.9666C18.7117 9.75507 18.8215 9.55879 19.0015 9.44794C19.1815 9.33607 19.4063 9.32691 19.5944 9.42149L23.6623 11.4555C23.8688 11.5592 24 11.7707 24 12.0016C24 12.2325 23.8688 12.444 23.6623 12.5477V12.5457ZM19.8607 20.6327L15.5467 19.1947C15.3454 19.1275 15.1949 18.9618 15.146 18.7563C15.0982 18.5509 15.1593 18.3343 15.3088 18.1848L18.1848 15.3087C18.3343 15.1592 18.5509 15.0982 18.7564 15.146C18.9618 15.1948 19.1286 15.3463 19.1947 15.5467L20.6327 19.8607C20.7059 20.0803 20.649 20.3224 20.4853 20.4851C20.3215 20.6488 20.0804 20.7059 19.8607 20.6327ZM11.4543 23.6624L9.42033 19.5944C9.32575 19.4052 9.33592 19.1815 9.44677 19.0015C9.55864 18.8215 9.7539 18.7117 9.96544 18.7117H14.0334C14.2449 18.7117 14.4412 18.8215 14.5521 19.0015C14.6639 19.1815 14.6731 19.4063 14.5785 19.5944L12.5445 23.6624C12.4408 23.8688 12.2293 24 11.9984 24C11.7675 24 11.556 23.8688 11.4523 23.6624H11.4543ZM3.36733 19.8607L4.80535 15.5467C4.87247 15.3454 5.03824 15.1949 5.24367 15.146C5.4491 15.0982 5.66572 15.1593 5.81522 15.3088L8.6913 18.1848C8.8408 18.3343 8.90181 18.5509 8.85402 18.7564C8.8052 18.9618 8.65367 19.1286 8.45331 19.1947L4.13932 20.6327C3.91965 20.7059 3.67762 20.649 3.5149 20.4853C3.35116 20.3215 3.29411 20.0804 3.36733 19.8607ZM0.337647 11.4543L4.40561 9.42033C4.59477 9.32575 4.81849 9.33592 4.9985 9.44677C5.17851 9.55864 5.28835 9.7539 5.28835 9.96544V14.0334C5.28835 14.2449 5.17851 14.4412 4.9985 14.5521C4.81849 14.6639 4.59374 14.6731 4.40561 14.5785L0.337647 12.5445C0.131198 12.4408 0 12.2293 0 11.9984C0 11.7675 0.131193 11.556 0.337647 11.4523V11.4543ZM4.13927 3.36733L8.45326 4.80535C8.65462 4.87247 8.80515 5.03824 8.85396 5.24367C8.90176 5.4491 8.84074 5.66572 8.69125 5.81522L5.81516 8.6913C5.66567 8.84079 5.44906 8.90181 5.24362 8.85401C5.03819 8.8052 4.8714 8.65367 4.8053 8.45331L3.36728 4.13932C3.29406 3.91965 3.35101 3.67762 3.51475 3.5149C3.67848 3.35116 3.91961 3.29411 4.13927 3.36733ZM12.0005 6.10204C15.2559 6.10204 17.899 8.74511 17.899 12.0005C17.899 15.2559 15.2559 17.899 12.0005 17.899C8.74511 17.899 6.10204 15.2559 6.10204 12.0005C6.10204 8.74511 8.74511 6.10204 12.0005 6.10204Z" fill="#888A91" fill-opacity="0.5"/>
</svg>
